<?xml version="1.0" encoding="utf-8"?>
<!-- Generator: Adobe Illustrator 27.5.0, SVG Export Plug-In . SVG Version: 6.00 Build 0)  -->
<svg version="1.1" xmlns="http://www.w3.org/2000/svg" xmlns:xlink="http://www.w3.org/1999/xlink" x="0px" y="0px"
	 viewBox="0 0 750 500" style="enable-background:new 0 0 750 500;" xml:space="preserve">
<g id="BACKGROUND">
	<rect style="fill:#FFFFFF;" width="750" height="500"/>
</g>
<g id="OBJECTS">
	<g>
		<path style="fill-rule:evenodd;clip-rule:evenodd;fill:#95B9FF;" d="M366.148,102.716
			c133.614-45.325,264.514-15.49,292.374,66.638c27.859,82.128-57.872,185.449-191.486,230.773
			c-133.614,45.325-264.514,15.49-292.374-66.638C146.803,251.362,232.534,148.041,366.148,102.716L366.148,102.716z"/>
		<g>
			<path style="fill-rule:evenodd;clip-rule:evenodd;fill:#6699FF;" d="M627.933,140.615c16.327-5.538,32.125-2.472,35.287,6.849
				c3.162,9.321-7.51,21.367-23.838,26.905c-16.327,5.539-32.125,2.472-35.287-6.849
				C600.934,158.199,611.606,146.153,627.933,140.615L627.933,140.615z"/>
			<path style="fill-rule:evenodd;clip-rule:evenodd;fill:#6699FF;" d="M603.999,120.263c8.3,2.847,13.396,9.913,11.383,15.782
				c-2.013,5.869-10.374,8.32-18.674,5.473c-8.3-2.847-13.396-9.913-11.383-15.783C587.339,119.867,595.699,117.416,603.999,120.263
				L603.999,120.263z"/>
			<path style="fill-rule:evenodd;clip-rule:evenodd;fill:#6699FF;" d="M629.99,120.128c4.453-1.51,8.961-0.087,10.069,3.18
				c1.108,3.267-1.604,7.139-6.057,8.65c-4.453,1.51-8.961,0.087-10.069-3.18C622.825,125.511,625.537,121.638,629.99,120.128
				L629.99,120.128z"/>
			<path style="fill-rule:evenodd;clip-rule:evenodd;fill:#E6E6E6;" d="M151.671,238.784c-6.482,12.418-17.484,19.484-24.573,15.783
				c-7.089-3.701-7.581-16.767-1.099-29.185c6.482-12.417,17.484-19.484,24.573-15.783
				C157.662,213.3,158.154,226.367,151.671,238.784L151.671,238.784z"/>
			<path style="fill-rule:evenodd;clip-rule:evenodd;fill:#E6E6E6;" d="M124.74,189.219c6.559,2.575,10.401,8.423,8.579,13.062
				c-1.821,4.639-8.615,6.311-15.174,3.736c-6.559-2.576-10.4-8.423-8.579-13.062C111.387,188.316,118.18,186.643,124.74,189.219
				L124.74,189.219z"/>
			<path style="fill-rule:evenodd;clip-rule:evenodd;fill:#E6E6E6;" d="M139.425,175.761c1.771-3.695,5.404-5.636,8.114-4.337
				c2.711,1.299,3.472,5.347,1.701,9.042c-1.771,3.694-5.404,5.636-8.114,4.337C138.416,183.504,137.654,179.455,139.425,175.761
				L139.425,175.761z"/>
		</g>
		<g>
			<path style="fill-rule:evenodd;clip-rule:evenodd;fill:#E6E6E6;" d="M311.361,90.872
				c113.33,38.129,227.328-44.717,262.955,88.243c20.813,77.674-136.922,104.493-229.299,116.417
				c-92.376,11.924-174.298-29.571-182.978-92.681C153.359,139.741,198.031,52.743,311.361,90.872L311.361,90.872z"/>
			<path style="fill-rule:evenodd;clip-rule:evenodd;fill:#FFFFFF;" d="M198.005,102.392l-8.407,34.217l100.809,25.905
				l-5.789-78.609c2.305,0.416,4.642,0.885,7.015,1.416l0.588,7.986l53.706,12.608l1.105-6.651c2.29,0.334,4.578,0.643,6.861,0.909
				l-1.126,6.779l53.598,4.26l1.186-9.459c2.339-0.079,4.669-0.167,6.987-0.265l-1.322,10.541l29.354,4.492l1.786-16.488
				c2.335-0.107,4.647-0.2,6.947-0.286l-11.865,109.56l29.163,3.785l10.422-113.452c2.317,0.099,4.61,0.232,6.874,0.408
				l-9.883,107.581l4.551,0.947l2.965-30.933l50.895,15.666l0.841-77.924c2.336,1.604,4.604,3.366,6.803,5.287l-0.545,50.527
				l29.26-3.825c0.852,2.528,1.658,5.182,2.442,7.896l-31.791,4.156l-0.693,64.251c-2.221,1.383-4.523,2.733-6.904,4.049
				l0.213-19.715l-58.784-12.236l-0.724,7.887l-10.231,37.464l5.725,11.085c-2.345,0.649-4.703,1.285-7.076,1.905l-6.163-11.935
				l10.994-40.255l0.066-0.718l-29.295-3.802l-4.231,39.075l-33.139-5.4l-4.249,36.843c-2.368,0.398-4.722,0.783-7.064,1.16
				l5.558-48.187l-0.599-33.523l-54.087-13.167l-2.617,91.057l9.728,3.134l22.513,3.668c-8.834,1.281-17.344,2.43-25.354,3.464
				c-0.318,0.041-0.634,0.075-0.951,0.114l-35.585-11.463l1.296,13.355c-2.326-0.036-4.642-0.1-6.942-0.204l-1.426-14.701
				l-50.541-1.756l-1.534,7.367c-2.238-0.692-4.444-1.423-6.621-2.187l1.129-5.423l-15.983-0.555
				c-5.77-2.643-11.251-5.562-16.416-8.729l34.086,1.184l5.722-27.485l-39.373-1.711l-7.174,23.617
				c-2.046-1.425-4.027-2.898-5.951-4.409l9.689-31.893l-6.805-6.707l13.535-35.034l-36.327-8.537l-10.772,43.841
				c-1.704-3.91-3.103-7.936-4.182-12.069l24.771-100.816C191.541,108.154,194.656,105.164,198.005,102.392L198.005,102.392z
				 M214.326,235.281l41.396,1.799l41.274,0.064l-2.88-29.68l-72.025-16.927l-12.017,31.106l6.46,6.367L214.326,235.281
				L214.326,235.281z M297.788,245.298l-39.497-0.061l-5.734,27.541l48.06,1.67L297.788,245.298L297.788,245.298z M218.123,181.27
				l10.18-26.349l-40.639-10.443l-6.884,28.016L218.123,181.27L218.123,181.27z M235.171,156.686l-10.126,26.211l68.245,16.038
				l-0.811-8.362l-0.013-0.112l-1.43-19.42L235.171,156.686L235.171,156.686z M292.845,101.789l6.479,87.97l-0.002,0l3.086,31.816
				l30.649,1.244l1.371-47.708l10.165-61.174L292.845,101.789L292.845,101.789z M351.423,115.034l-10.159,61.135l-0.281,9.77
				l54.353,13.232l10.01-79.851L351.423,115.034L351.423,115.034z M412.203,120.095l-2.867,22.87l29.701,6.16l2.655-24.518
				L412.203,120.095L412.203,120.095z M408.322,151.057l-6.682,53.295l0.662,37.063l-0.183,1.582l26.288,4.283l9.75-90.035
				L408.322,151.057L408.322,151.057z M487.346,209.987l46.792,9.74l0.194-18.02l-44.869-13.811L487.346,209.987L487.346,209.987z
				 M303.203,229.768l4.431,45.673l23.692,7.632l1.497-52.103L303.203,229.768L303.203,229.768z"/>
		</g>
		<g>
			<path style="fill-rule:evenodd;clip-rule:evenodd;fill:#E6E6E6;" d="M207.714,380.487c-60.753,1.731-99.694,4.398-99.694,7.39
				c0,3.35,48.797,6.292,122.378,7.97C222.115,391.301,214.521,386.174,207.714,380.487L207.714,380.487z"/>
			<path style="fill-rule:evenodd;clip-rule:evenodd;fill:#6699FF;" d="M372.501,378.429c-62.318,0-119.592,0.77-164.794,2.059
				c6.808,5.687,14.4,10.814,22.684,15.359c41.047,0.936,89.804,1.479,142.111,1.479c37.159,0,72.521-0.274,104.606-0.768
				c13.526-4.973,26.526-10.539,38.926-16.616C474.693,378.984,425.415,378.429,372.501,378.429L372.501,378.429z"/>
			<path style="fill-rule:evenodd;clip-rule:evenodd;fill:#FFCC00;" d="M244.006,251.746c-24.204,7.945-65.221,12.194-94.968,21.248
				c-29.747,9.054-41.018,25.867-41.018,30.671s0,21.617,0,29.377c0,7.76,9.881,15.43,24.758,24.019
				c14.878,8.589,28.084,6.836,35.659,6.836h3.252c-1.856-5.146-2.87-10.695-2.87-16.481c0-26.823,21.744-48.567,48.567-48.567
				c26.823,0,48.567,21.744,48.567,48.567c0,5.786-1.014,11.335-2.87,16.481h256.913c-1.856-5.146-2.87-10.695-2.87-16.481
				c0-26.823,21.744-48.567,48.567-48.567c16.025,0,30.235,7.763,39.081,19.731c9.08-8.852,17.238-18.007,24.383-27.361
				c-0.297-2.181-0.472-4.266-0.472-6.217c0-18.661-36.029-55.799-41.757-61.711c-5.728-5.912-12.934-12.933-12.195-15.705
				c0.739-2.771,8.647-1.303,9.238-3.511c0.591-2.207-17.552-5.912-37.692-9.238c-20.139-3.326-81.481-9.608-122.313-7.391
				c-40.833,2.217-63.743,7.945-96.262,23.096C295.185,225.694,275.785,238.813,244.006,251.746L244.006,251.746z"/>
			<path style="fill-rule:evenodd;clip-rule:evenodd;fill:#FFB900;" d="M391.683,326.095c-51.642,0-93.506,1.169-93.506,2.61
				c0,1.442,41.864,2.61,93.506,2.61s93.506-1.169,93.506-2.61C485.188,327.263,443.324,326.095,391.683,326.095L391.683,326.095z"
				/>
			<path style="fill-rule:evenodd;clip-rule:evenodd;fill:#EA8E00;" d="M628.692,285.615c-0.004-0.205-0.008-0.41-0.008-0.612
				c0-0.278-0.009-0.56-0.025-0.846c-5.594,1.219-12.805,3.128-20.239,7.541c-1.859,1.103-3.795,2.497-5.866,3.986
				c-4.15,2.985-8.855,6.368-14.618,8.548c0.56,0.289,1.112,0.589,1.659,0.899c5.379-2.233,9.832-5.436,13.794-8.286
				c2.031-1.461,3.93-2.828,5.76-3.913C616.282,288.698,623.239,286.815,628.692,285.615L628.692,285.615z"/>
			<path style="fill-rule:evenodd;clip-rule:evenodd;fill:#FF4646;" d="M626.952,276.771c-3.16-8.582-10.225-18.869-17.607-28.172
				c-7.984-1.114-11.408-1.271-12.086,0.917c-0.896,2.888,14.186,23.637,22.194,26.175
				C621.832,276.445,624.449,276.736,626.952,276.771L626.952,276.771z"/>
			<path style="fill-rule:evenodd;clip-rule:evenodd;fill:#FFFFFF;" d="M152.691,271.922c-1.234,0.35-2.454,0.706-3.653,1.071
				c-21.44,6.525-33.281,17.081-38.223,24.267c12.058,5.064,41.249-2.668,48.46-4.471c8.598-2.149,6.614-14.219,4.134-17.275
				C160.693,272.878,156.96,271.853,152.691,271.922L152.691,271.922z"/>
			<path style="fill-rule:evenodd;clip-rule:evenodd;fill:#FFE45F;" d="M580.482,255.932c-6.328,6.921-87.702,6.653-109.757,6.657
				c-46.134,0.008-150.069,8.445-150.069,7.032c0-2.599,15.111-3.298,49.868-6.833c17.67-1.798,40.42-3.657,68.842-5.175
				C523.694,253.106,589.691,245.859,580.482,255.932L580.482,255.932z"/>
			<path style="fill-rule:evenodd;clip-rule:evenodd;fill:#F1F1F1;" d="M145.719,277.006c-4.064,0-10.736,4.331-14.902,9.673
				c-4.167,5.342-4.25,9.672-0.187,9.672c4.064,0,10.736-4.331,14.902-9.672C149.699,281.337,149.783,277.006,145.719,277.006
				L145.719,277.006z"/>
			<path style="fill-rule:evenodd;clip-rule:evenodd;" d="M565.692,302.597c-24.753,0-44.819,20.066-44.819,44.819
				c0,9.619,3.031,18.53,8.189,25.831c28.081-15.091,52.725-32.809,72.988-52.04C593.91,309.935,580.659,302.597,565.692,302.597
				L565.692,302.597z"/>
			<path style="fill-rule:evenodd;clip-rule:evenodd;" d="M217.386,302.597c-24.753,0-44.82,20.066-44.82,44.819
				c0,24.753,20.066,44.82,44.82,44.82c24.753,0,44.819-20.066,44.819-44.82C262.205,322.664,242.139,302.597,217.386,302.597
				L217.386,302.597z"/>
			<path style="fill-rule:evenodd;clip-rule:evenodd;fill:#FFFFFF;" d="M538.674,207.406c6.207,5.12,14.896,29.326,16.448,38.171
				c0,0-100.704,4.965-115.755,6.827l2.327-55.55C441.694,196.854,531.226,201.509,538.674,207.406L538.674,207.406z"/>
			<path style="fill-rule:evenodd;clip-rule:evenodd;fill:#F1F1F1;" d="M538.674,207.406c3.877,3.198,8.722,13.843,12.192,23.539
				c-7.938,2.959-18.57,3.103-23.982,6.807c-3.445,2.358-2.896,5.785-0.653,9.297c-21.608,1.127-50.555,2.697-69.423,3.955
				c10.987-9.614,3.91-20.645,11.737-26.375c10.889-7.973,36.789,0,44.202-8.5c2.589-2.968,3.401-8.048,3.365-13.403
				C527.675,204.131,536.542,205.717,538.674,207.406L538.674,207.406z M439.68,244.912l0.121-2.878
				c1.194-0.088,2.338-0.331,3.377-0.753c1.727-0.702,3.172-1.921,4.07-3.782c1.174-2.434,1.462-5.979,0.337-10.918
				c-2.112-9.271,2.594-13.403,9.887-15.065c6.488-1.478,15.025-0.855,22.294-0.324c6.128,0.448,11.31,0.826,12.952-0.118
				c3.044-1.749,2.058-4.917,0.221-8.113c-0.511-0.89-1.108-1.813-1.718-2.723c1.205,0.102,2.409,0.206,3.61,0.312
				c0.2,0.325,0.396,0.654,0.587,0.986c2.595,4.516,3.823,9.087-1.275,12.017c-2.414,1.387-7.988,0.98-14.578,0.499
				c-7.083-0.517-15.401-1.125-21.464,0.257c-5.682,1.295-9.353,4.492-7.723,11.644c1.283,5.631,0.891,9.805-0.55,12.791
				c-1.236,2.562-3.214,4.236-5.573,5.195C442.836,244.516,441.284,244.827,439.68,244.912L439.68,244.912z"/>
			<path style="fill-rule:evenodd;clip-rule:evenodd;fill:#FFFFFF;" d="M425.401,196.854l-10.396,57.723
				c0,0-120.1,11.327-121.497,9.931c-1.396-1.396,8.508-28.852,9.284-30.774C303.568,231.812,348.128,202.906,425.401,196.854
				L425.401,196.854z"/>
			<path style="fill-rule:evenodd;clip-rule:evenodd;fill:#F1F1F1;" d="M425.401,196.854l-2.75,15.267
				c-12.201,1.176-24.624,1.627-26.588,6.754c-4.942,12.904,15.937,12.458,11.256,29.926c-0.843,3.144-2.513,5.361-4.693,6.931
				c-30.7,2.847-108,9.894-109.119,8.776c-0.352-0.352,0.015-2.364,0.774-5.205c24.776-8.918,55.109-6.553,55.109-13.725
				c0-9.626-21.14-7.825-18.395-18.711c2.675-10.608,46.008-11.781,48.225-23.218C392.949,200.63,408.38,198.187,425.401,196.854
				L425.401,196.854z M299.855,241.898c0.612-1.758,1.179-3.357,1.651-4.669c3.551-1.638,7.108-1.37,10.08-1.145
				c2.407,0.182,4.309,0.325,4.926-0.913c0.628-1.258-0.583-3.309-1.904-5.545c-0.495-0.838-1.001-1.696-1.457-2.57
				c0.804-0.435,1.652-0.884,2.547-1.347c0.418,0.835,0.904,1.659,1.377,2.46c1.735,2.938,3.326,5.632,2.004,8.281
				c-1.479,2.965-4.228,2.757-7.708,2.494C308.027,238.691,303.814,238.373,299.855,241.898L299.855,241.898z"/>
			<path style="fill-rule:evenodd;clip-rule:evenodd;fill:#FFFFFF;" d="M297.566,237.752c0,0-38.908,24.011-40.611,26.874
				c-1.703,2.863,33.406,0,33.406,0S292.064,252.425,297.566,237.752L297.566,237.752z"/>
			<path style="fill-rule:evenodd;clip-rule:evenodd;fill:#FFCC00;" d="M324.487,251.826c-0.411,7.401-6.329,9.292-10.439,8.798
				c-4.11-0.493-14.302-4.035-14.302-8.798c0-4.764,5.918-10.024,12.37-10.024C318.569,241.802,324.85,245.214,324.487,251.826
				L324.487,251.826z"/>
			<path style="fill-rule:evenodd;clip-rule:evenodd;fill:#FFFFFF;" d="M553.399,260.049c0.082,3.041,3.452,4.439-6.986,4.11
				c-10.439-0.329-20.302,2.302-19.48-0.904c0.822-3.205,7.932-5.343,13.501-5.343S553.982,256.432,553.399,260.049L553.399,260.049
				z"/>
			<path style="fill-rule:evenodd;clip-rule:evenodd;fill:#FFFFFF;" d="M418.11,268.432c0.082,3.041,3.452,4.438-6.987,4.11
				c-10.439-0.329-20.302,2.301-19.48-0.904c0.822-3.206,7.932-5.343,13.501-5.343S418.693,264.815,418.11,268.432L418.11,268.432z"
				/>
			<path style="fill:none;stroke:#EA8E00;stroke-width:2.8347;stroke-miterlimit:22.9256;" d="M555.122,245.577
				c0,0,8.119,30.907,3.49,39.306c-4.629,8.4-16.386,9.501-32.497,24.786c-16.111,15.285-15.56,35.287-20.379,37.747
				c-4.819,2.461-85.236,2.323-85.236,2.323s-123.306,4.526-126.991,1.102c-3.685-3.425-3.685-40.314-3.685-50.657
				s-0.488-29.234,3.628-35.762 M433.63,196.854l-6.124,55.55c-2.105,8.293-7.007,57.611-7.007,97.335"/>
			<path style="fill-rule:evenodd;clip-rule:evenodd;fill:#FFE45F;" d="M114.457,315.283c0,1.072,32.629,4.631,39.361,2.144
				c6.732-2.487,6.217-7.289-0.986-7.289c-7.203,0-15.221,2.955-23.539,3.516C120.974,314.215,114.457,314.215,114.457,315.283
				L114.457,315.283z"/>
			<path style="fill-rule:evenodd;clip-rule:evenodd;fill:#FFFFFF;" d="M131.633,330.31c0,0-0.848,7.56-0.231,10.105
				c0.617,2.546,1.774,4.937,4.783,4.86c3.008-0.077,7.698-4.011,7.698-10.028C143.882,329.23,131.633,330.31,131.633,330.31
				L131.633,330.31z"/>
			<path style="fill:none;stroke:#EA8E00;stroke-width:2.126;stroke-miterlimit:22.9256;" d="M126.153,328
				c7.794,0.771,16.344-0.958,19.192,2.845c2.565,3.425,2.068,7.86-2.838,14.432"/>
			<path style="fill-rule:evenodd;clip-rule:evenodd;fill:#333333;" d="M565.692,318.854c-15.775,0-28.563,12.788-28.563,28.563
				c0,6.716,2.319,12.89,6.199,17.767c17.031-10.125,32.618-21.226,46.514-33.023C584.78,324.164,575.857,318.854,565.692,318.854
				L565.692,318.854z"/>
			<path style="fill-rule:evenodd;clip-rule:evenodd;fill:#666666;" d="M586.958,334.568c-2.883-4.761-7.319-8.477-12.607-10.443
				c2.321,4.131,3.647,8.897,3.647,13.972c0,1.296-0.088,2.572-0.256,3.822C580.889,339.503,583.961,337.052,586.958,334.568
				L586.958,334.568z"/>
			<path style="fill-rule:evenodd;clip-rule:evenodd;fill:#333333;" d="M217.386,318.854c-15.775,0-28.563,12.788-28.563,28.563
				c0,15.775,12.788,28.563,28.563,28.563c15.775,0,28.563-12.788,28.563-28.563C245.949,331.642,233.161,318.854,217.386,318.854
				L217.386,318.854z"/>
			<path style="fill-rule:evenodd;clip-rule:evenodd;fill:#666666;" d="M202.544,367.34c4.141,3.09,9.277,4.92,14.842,4.92
				c13.72,0,24.843-11.123,24.843-24.844c0-6.416-2.433-12.263-6.427-16.672c0.871,2.736,1.343,5.65,1.343,8.674
				c0,15.775-12.788,28.563-28.563,28.563C206.51,367.982,204.491,367.759,202.544,367.34L202.544,367.34z"/>
			<path style="fill-rule:evenodd;clip-rule:evenodd;fill:#FFFF66;" d="M159.029,279.029c-2.692,0-7.112,2.869-9.872,6.408
				c-2.76,3.539-2.816,6.408-0.124,6.408c2.692,0,7.112-2.869,9.872-6.408C161.666,281.898,161.721,279.029,159.029,279.029
				L159.029,279.029z"/>
			<path style="fill-rule:evenodd;clip-rule:evenodd;fill:#FFAA00;" d="M306.158,255.528c2.63,1.479,4.624,2.012,2.23,8.363
				c-2.394,6.35-3.877,7.336-10.821,7.336s-6.368-4.932-2.094-9.37C299.746,257.419,303.116,254.131,306.158,255.528
				L306.158,255.528z"/>
		</g>
		<g>
			<path style="fill-rule:evenodd;clip-rule:evenodd;fill:#CCCCCC;" d="M424.918,138.42c4.043,0,7.32,0.654,7.32,1.46
				c0,0.807-3.277,1.46-7.32,1.46c-4.042,0-7.32-0.654-7.32-1.46C417.598,139.073,420.875,138.42,424.918,138.42L424.918,138.42z"/>
			<path style="fill-rule:evenodd;clip-rule:evenodd;fill:#FF4646;" d="M424.918,66.852c11.835,0,21.429,9.594,21.429,21.429
				s-21.429,51.599-21.429,51.599s-21.429-39.764-21.429-51.599S413.083,66.852,424.918,66.852L424.918,66.852z"/>
			<path style="fill-rule:evenodd;clip-rule:evenodd;fill:#95B9FF;" d="M424.918,80.961c4.043,0,7.32,3.277,7.32,7.32
				c0,4.043-3.277,7.32-7.32,7.32c-4.042,0-7.32-3.277-7.32-7.32C417.598,84.238,420.875,80.961,424.918,80.961L424.918,80.961z"/>
		</g>
	</g>
	<g>
		<path style="fill-rule:evenodd;clip-rule:evenodd;" d="M199.606,127.123c0,0-0.284,9.363-3.547,12.2s-4.54-12.342-4.54-12.342
			L199.606,127.123z"/>
		<path style="fill-rule:evenodd;clip-rule:evenodd;fill:#E6E6E6;" d="M181.778,410.559L181.778,410.559
			c-0.764-0.001-1.531-0.002-2.3-0.002c-50.155,0-90.814,2.806-90.814,6.267c0,3.461,40.659,6.267,90.814,6.267
			c17.816,0,34.43-0.354,48.453-0.966c0,0,0,0,0,0c25.455-1.11,42.362-3.069,42.362-5.301
			C270.293,413.416,230.871,410.643,181.778,410.559z"/>
		<path style="fill-rule:evenodd;clip-rule:evenodd;fill:#003399;" d="M195.508,182.019c0.037-3.815,0.162-8.099-1.948-11.524
			c-2.111-3.425-11.97-1.273-19.407-1.541c-7.436-0.268-25.03-4.952-27.654,1.273c-2.624,6.225,0,10.787,0,10.787
			s-6.521,5.427-10.499,11.993c-3.978,6.566-7.226,19.088-9.418,23.38c-2.192,4.292-4.303,14.945-3.004,22.181
			c1.299,7.236,0.974,15.477,3.734,18.157c2.76,2.68,11.122,5.533,23.3,6.217c12.178,0.684,38.98,6.66,38.98-9.985
			C189.594,236.311,201.495,225.564,195.508,182.019L195.508,182.019z"/>
		<path style="fill-rule:evenodd;clip-rule:evenodd;fill:#00258B;" d="M195.508,182.019c0.03-3.067,0.116-6.437-0.948-9.421
			c-3.727,0.053-8.201,0.557-12.032,0.419c-7.436-0.268-25.03-4.952-27.654,1.273c-2.624,6.225,0,10.787,0,10.787
			s-6.521,5.427-10.499,11.993c-3.978,6.566-7.225,19.088-9.418,23.38c-2.192,4.291-4.303,14.945-3.004,22.18
			c1.271,7.079,0.988,15.118,3.559,17.974c3.947,1.123,9.052,1.997,15.1,2.337c12.178,0.684,38.98,6.66,38.98-9.985
			C189.594,236.311,201.495,225.564,195.508,182.019L195.508,182.019z"/>
		<path style="fill-rule:evenodd;clip-rule:evenodd;fill:#663300;" d="M239.695,407.816c0,0,1.122,9.302-7.735,9.012
			c-8.856-0.29-16.001-1.459-16.001-1.459v1.459h-14.052v-6.624L239.695,407.816L239.695,407.816z"/>
		<polygon style="fill-rule:evenodd;clip-rule:evenodd;fill:#000066;" points="204.51,277.171 217.204,392.409 202.724,392.409 
			181.117,310.18 163.173,396.966 148.584,396.966 148.48,277.171 204.51,277.171 		"/>
		<path style="fill-rule:evenodd;clip-rule:evenodd;fill:#FFCC99;" d="M197.334,227.883c3.099,8.867,9.298,17.308,19.423,16.455
			c10.124-0.853,0-27.284,0-27.284L197.334,227.883L197.334,227.883z"/>
		<path style="fill-rule:evenodd;clip-rule:evenodd;fill:#FFBA87;" d="M219.727,226.631c-1.305-5.226-2.97-9.576-2.97-9.576
			l-9.204,5.131c-0.14,6.041,1.542,12.217,8.911,12.523L219.727,226.631L219.727,226.631z"/>
		<path style="fill-rule:evenodd;clip-rule:evenodd;fill:#FFCC99;" d="M169.048,159.008l-2.331,27.828h19.321
			c0,0-4.413-15.308-4.413-23.163L169.048,159.008L169.048,159.008z"/>
		<path style="fill-rule:evenodd;clip-rule:evenodd;fill:#FF9966;" d="M169.048,159.008l-0.486,5.804
			c4.368,4.484,10.174,8.649,14.609,10.367c-0.844-4.059-1.545-8.375-1.545-11.506L169.048,159.008L169.048,159.008z"/>
		<path style="fill-rule:evenodd;clip-rule:evenodd;fill:#FFCC99;" d="M196.128,121.93c0,0,7.04,46.144-15.877,46.144
			c-22.917,0-20.22-31.508-20.22-39.44v-6.704H196.128L196.128,121.93z"/>
		<path style="fill-rule:evenodd;clip-rule:evenodd;" d="M157.282,140.583c7.09,0.564,12.28-4.128,12.28-8.007
			s-2.174-7.687-2.174-7.687s7.397,8.12,19.592,7.908c12.195-0.212,17.591-6.526,16.881-14.47c-0.46-5.154-5.182-9.376-9.531-9.376
			c-4.349,0-11.912,3.244-17.206,3.244c-5.294,0-11.177-2.257-14.9,0.917c-3.724,3.173-3.44,6.347-3.44,6.347
			s-9.058,2.257-9.058,10.084c0,7.828,5.944,11.553,7.335,11.478L157.282,140.583z"/>
		<path style="fill-rule:evenodd;clip-rule:evenodd;" d="M176.967,143.413c0.769,0,1.392,0.652,1.392,1.456
			s-0.623,1.456-1.392,1.456c-0.769,0-1.393-0.652-1.393-1.456S176.198,143.413,176.967,143.413L176.967,143.413z"/>
		<path style="fill-rule:evenodd;clip-rule:evenodd;" d="M190.979,143.6c0.769,0,1.392,0.652,1.392,1.456s-0.623,1.456-1.392,1.456
			c-0.769,0-1.392-0.652-1.392-1.456S190.21,143.6,190.979,143.6L190.979,143.6z"/>
		<path style="fill-rule:evenodd;clip-rule:evenodd;fill:#FF9966;" d="M185.703,143.799c2.264,4.076,3.783,7.305-3.219,8.55
			c-0.333,0.038-0.626-0.133-0.655-0.381c-0.028-0.249,0.219-0.481,0.552-0.519c5.857-1.037,4.195-3.663,2.218-7.219
			c-0.138-0.221-0.003-0.498,0.301-0.617C185.206,143.494,185.565,143.578,185.703,143.799L185.703,143.799z"/>
		<path style="fill-rule:evenodd;clip-rule:evenodd;fill:#FF6633;" d="M144.089,192.366c1.942-2.885,23.361-14.275,23.361-14.275
			s3.443,7.137,10.047,7.137c6.604,0,6.143-7.875,6.143-7.875s22.7,6.036,24.837,8.36c2.137,2.324,11.557,38.471,11.557,38.471
			s-6.215,4.809-18.258,4.088c0,0,2.913,29.735,3.885,36.147c0.971,6.411,3.049,11.036,2.467,11.758
			c-3.944,4.898-16.622,6.732-22.214,7.487c-13.46,1.817-28.668-0.414-40.816-6.679c-1.554-0.801,2.39-34.928,3.555-41.02
			c0,0-14.665-3.526-14.762-4.488C133.795,230.516,142.244,194.93,144.089,192.366z"/>
		<path style="fill-rule:evenodd;clip-rule:evenodd;fill:#EA511E;" d="M210.344,227.833c-1.489,0.258-3.147,0.44-4.971,0.494
			l-0.826-31.142C210.711,207.596,210.528,223.442,210.344,227.833L210.344,227.833z"/>
		<path style="fill-rule:evenodd;clip-rule:evenodd;fill:#EA511E;" d="M165.181,179.312l0.531-0.287
			c0.865,1.908,2.635,4.038,4.827,5.63c2.208,1.603,4.835,2.649,7.366,2.342c4.958-0.6,6.634-3.192,7.013-5.791
			c0.182-1.248,0.071-2.5-0.122-3.542l0.661,0.181c0.171,1.025,0.256,2.223,0.08,3.422c-0.409,2.801-2.212,5.594-7.542,6.239
			c-2.735,0.331-5.534-0.771-7.868-2.465C167.907,183.429,166.101,181.272,165.181,179.312L165.181,179.312z"/>
		<path style="fill-rule:evenodd;clip-rule:evenodd;fill:#FFCC99;" d="M213.037,230.727c-1.446,7.047,0.956,13.257,4.588,13.465
			c3.631,0.207,7.086-1.473,12.458-11.363c5.372-9.89,10.434-35.383,11.261-36.832c0.826-1.449,8.781-0.085,11.054-2.899
			c2.273-2.813,3.823-15.744,0-15.744c-3.823,0-16.081,5.086-18.733,15.232C231.013,202.731,220.033,210.78,213.037,230.727
			L213.037,230.727z"/>
		<path style="fill-rule:evenodd;clip-rule:evenodd;fill:#FF6633;" d="M215.141,384.009c5.232,1.939,2.349,12.337,3.631,14.276
			c1.281,1.939,4.485,3.26,9.29,2.291c4.805-0.969,12.92-0.088,12.92,5.728c0,5.816-2.062,7.931-12.92,7.931
			s-25.877,0.018-26.541-2.027c-0.664-2.045-0.687-19.832,0.67-21.771c0.425-0.507,4.04,0.532,5.437-0.701
			C209.72,387.888,210.267,383.731,215.141,384.009L215.141,384.009z"/>
		<path style="fill-rule:evenodd;clip-rule:evenodd;" d="M230.361,400.286c-2.404,0.309-3.943,2.23-4.877,3.9
			c-0.122,0.266-0.482,0.4-0.804,0.299c-0.322-0.101-0.485-0.398-0.363-0.664c1.211-2.164,2.977-4.203,6.044-4.565
			c0.345,0,0.624,0.231,0.624,0.515S230.705,400.286,230.361,400.286L230.361,400.286z"/>
		<path style="fill-rule:evenodd;clip-rule:evenodd;" d="M224.9,400.828c-1.877,0.263-3.726,1.554-4.671,2.872
			c-0.142,0.259-0.511,0.375-0.825,0.258c-0.314-0.117-0.454-0.422-0.313-0.681c1.233-1.73,3.355-3.169,5.808-3.479
			c0.344,0,0.624,0.23,0.624,0.515C225.524,400.597,225.245,400.828,224.9,400.828L224.9,400.828z"/>
		<path style="fill-rule:evenodd;clip-rule:evenodd;" d="M220.172,399.737c-0.866-0.057-2.423,1.234-2.9,1.673
			c-0.179,0.243-0.562,0.321-0.857,0.174c-0.295-0.147-0.389-0.464-0.211-0.707c0.992-0.944,2.598-2.321,4.3-2.132
			c0.332,0.076,0.527,0.36,0.435,0.634C220.847,399.652,220.504,399.813,220.172,399.737L220.172,399.737z"/>
		<path style="fill-rule:evenodd;clip-rule:evenodd;" d="M211.347,399.696c0.872-1.498,2.055-2.863,3.343-4.038
			c-4.018-0.323-7.126-1.889-3.556-3.167c1.349-0.483,3.727,0.161,6.121,1.152c3.959-2.672,7.697-3.348,5.955-0.505
			c-0.57,0.931-1.584,1.57-2.81,1.98c1.663,0.864,3.076,1.727,3.806,2.255c0.218,0.22,0.179,0.545-0.088,0.725
			c-0.267,0.18-0.66,0.148-0.878-0.073c-0.423-0.303-2.333-1.426-4.526-2.502c-0.678,0.11-1.383,0.171-2.088,0.189
			c-1.835,1.557-3.485,3.256-4.062,4.212c-0.077,0.277-0.411,0.451-0.747,0.388C211.481,400.25,211.27,399.974,211.347,399.696
			L211.347,399.696z M216.036,394.526c0.06-0.046,0.119-0.092,0.179-0.138c-2.534-1.044-4.856-1.616-5.216-0.457
			C211.423,394.385,213.662,394.633,216.036,394.526L216.036,394.526z M218.534,394.203l0.113,0.052
			c1.926-0.335,3.489-0.971,3.619-2.005C221.38,392.341,219.994,393.135,218.534,394.203L218.534,394.203z"/>
		<path style="fill-rule:evenodd;clip-rule:evenodd;fill:#000066;" d="M195.546,178.204c4.113,0.964,6.337,3.946,8.227,10.735
			c1.89,6.789,4.948,26.425,4.002,36.839c-0.945,10.414-4.171,20.577-4.171,20.577s-1.999-20.026-2.5-24.431
			c-0.5-4.404-5.614-30.921-7.949-36.518c-2.335-5.597-3.891-6.352-3.502-7.203C190.042,177.353,195.546,178.204,195.546,178.204
			L195.546,178.204z"/>
		<path style="fill-rule:evenodd;clip-rule:evenodd;fill:#663300;" d="M144.72,410.694l-2.664,0.089
			c0.158,4.534-1.004,10.918,13.117,11.107c14.12,0.188,13.115-4.609,13.172-9.655L144.72,410.694L144.72,410.694z"/>
		<path style="fill-rule:evenodd;clip-rule:evenodd;fill:#000066;" d="M155.857,181.43c3.871-2.022,5.714-1.78,6.173-1.213
			c0.459,0.567,3.886,4.933,4.687,11.726c0.8,6.793,2.123,21.349,1.486,30.446c-0.637,9.097-10.563,29.354-21.704,30.568v-17.475
			c0.9,0.229,1.655,0.403,2.154,0.485c2.755,0.455,9.537,0.638,12.316-0.6c0,0,1.456-10.689,1.456-16.103
			c0-4.395-2.894-24.64-5.54-28.534c-2.646-3.894-3.919-4.69-4.017-5.337C152.771,184.745,153.31,182.926,155.857,181.43
			L155.857,181.43z"/>
		<path style="fill-rule:evenodd;clip-rule:evenodd;fill:#FFCC99;" d="M154.224,143.739c0,3.082,2.512,5.222,5.708,5.222
			c3.195,0,4.269-4.309,4.269-5.291c0-0.983-1.395-4.893-4.988-4.893C155.621,138.777,154.03,141.701,154.224,143.739
			L154.224,143.739z"/>
		<path style="fill-rule:evenodd;clip-rule:evenodd;fill:#FF9966;" d="M158.555,140.869c1.862-0.22,3.928,0.895,3.716,3.073
			c-0.036,0.366-2.437,0.383-1.922,1.039c0.619,0.788,1.704,0.455,2.02,0.193c-0.148,0.812-2.358,1.424-2.856-0.005
			c-0.243-0.695,0.28-1.581,1.732-1.613c-0.304-1.648-1.413-2.155-2.451-2c-2.125,0.317-2.35,1.311-2.495,1.93
			C155.951,142.676,156.488,141.113,158.555,140.869L158.555,140.869z"/>
		<path style="fill-rule:evenodd;clip-rule:evenodd;fill:#FFCC99;" d="M137.781,233.008c-1.209,3.924-2.527,10.117-1.01,15.374
			c2.436,8.442,18.835,51.054,18.835,51.054l6.819-4.824c0,0-8.76-44.483-9.247-48.333c0,0,2.424-4.034,4.01-10.11
			c-3.044,0.284-6.656-0.317-8.535-0.627C146.774,235.232,141.065,233.991,137.781,233.008L137.781,233.008z"/>
		<path style="fill-rule:evenodd;clip-rule:evenodd;fill:#FF4646;" d="M238.128,160.444l13.886,1.053
			c1.025,0.078,1.787,0.834,1.692,1.68l-2.823,25.339c-0.094,0.846-1.01,1.475-2.036,1.397l-13.885-1.053
			c-1.025-0.078-1.787-0.834-1.693-1.68l2.823-25.339C236.186,160.994,237.102,160.366,238.128,160.444L238.128,160.444z"/>
		<path style="fill-rule:evenodd;clip-rule:evenodd;" d="M250.331,162.811L250.331,162.811c0.794,0.06,1.383,0.646,1.311,1.3
			l-0.419,3.761c-0.073,0.655-0.782,1.142-1.576,1.081h0c-0.794-0.06-1.383-0.645-1.31-1.3l0.419-3.761
			C248.828,163.237,249.537,162.751,250.331,162.811L250.331,162.811z"/>
		<path style="fill-rule:evenodd;clip-rule:evenodd;fill:#333333;" d="M250.254,163.503c0.511,0.039,0.888,0.412,0.841,0.834
			c-0.047,0.422-0.5,0.733-1.011,0.694c-0.511-0.039-0.888-0.412-0.841-0.834C249.29,163.775,249.743,163.464,250.254,163.503
			L250.254,163.503z"/>
		<path style="fill-rule:evenodd;clip-rule:evenodd;fill:#FFFFFF;" d="M249.83,167.311c0.302,0.023,0.524,0.244,0.497,0.493
			c-0.028,0.249-0.295,0.433-0.597,0.41c-0.302-0.023-0.524-0.243-0.497-0.493C249.26,167.472,249.528,167.289,249.83,167.311
			L249.83,167.311z"/>
		<path style="fill-rule:evenodd;clip-rule:evenodd;fill:#333333;" d="M250.042,165.407c0.511,0.039,0.888,0.412,0.841,0.835
			c-0.047,0.422-0.5,0.733-1.011,0.694c-0.511-0.039-0.888-0.412-0.841-0.834C249.078,165.679,249.531,165.368,250.042,165.407
			L250.042,165.407z"/>
		<path style="fill-rule:evenodd;clip-rule:evenodd;fill:#FF6633;" d="M156.979,391.733c10.066,0.402,6.9,8.809,6.576,12.444
			c-0.325,3.636,4.628,4.842,4.79,8.058c0.162,3.216-2.76,7.062-12.868,7.062c-10.107,0-13.436-3.668-13.436-9.137
			c0-5.469,5.465-5.977,5.465-9.333C147.506,397.471,144.624,391.952,156.979,391.733L156.979,391.733z"/>
		<path style="fill-rule:evenodd;clip-rule:evenodd;" d="M150.283,408.81c2.236-1.438,5.878-1.161,8.111,0.131
			c0.244,0.201,0.244,0.527,0,0.728c-0.244,0.201-0.639,0.201-0.882,0c-1.599-0.89-4.774-1.135-6.379-0.105
			c-0.252,0.194-0.647,0.182-0.882-0.026C150.017,409.33,150.031,409.004,150.283,408.81L150.283,408.81z"/>
		<path style="fill-rule:evenodd;clip-rule:evenodd;" d="M151.068,405.441c1.876-0.932,4.986-1.108,6.718,0.182
			c0.23,0.212,0.208,0.538-0.049,0.727c-0.257,0.19-0.651,0.172-0.881-0.04c-1.078-0.792-3.809-0.647-4.969-0.092
			c-0.26,0.186-0.654,0.164-0.88-0.051C150.78,405.953,150.807,405.627,151.068,405.441L151.068,405.441z"/>
		<path style="fill-rule:evenodd;clip-rule:evenodd;" d="M151.156,402.727c1.33-1.515,5.313-1.658,6.951-0.049
			c0.191,0.237,0.115,0.556-0.172,0.715c-0.286,0.158-0.674,0.095-0.866-0.142c-1.032-1.01-4.149-0.751-4.806-0.049
			c-0.159,0.252-0.536,0.351-0.841,0.219C151.116,403.29,150.997,402.979,151.156,402.727L151.156,402.727z"/>
		<path style="fill-rule:evenodd;clip-rule:evenodd;" d="M148.512,403.077c1.503-1.797,3.123-3.184,4.719-4.231
			c-3.289-0.904-5.635-2.635-3.938-3.88c1.504-1.103,3.857,0.773,5.983,2.707c5.312-2.622,9.618-1.577,7.218,0.377
			c-1.303,1.061-3.258,1.443-5.29,1.394c0.697,0.623,1.315,1.125,1.799,1.355c1.689,0.804,2.177,0.878,3.998,1.426
			c0.329,0.084,0.514,0.372,0.413,0.644c-0.101,0.272-0.451,0.424-0.78,0.34l-2.158-0.649c-2.155-0.768-3.815-2.036-5.205-3.273
			c-2.427,1.47-4.795,3.241-5.626,4.22c-0.144,0.259-0.514,0.372-0.828,0.253C148.505,403.641,148.368,403.335,148.512,403.077
			L148.512,403.077z M153.866,397.988c-1.373-1.285-2.508-2.29-3.72-2.266c-0.033,0.02-0.07,0.045-0.078,0.072
			C149.806,396.703,151.6,397.526,153.866,397.988L153.866,397.988z M156.888,398.361c2.209,0.099,4.245-0.213,4.842-1.154
			C161.32,396.363,159.235,397.097,156.888,398.361L156.888,398.361z"/>
		<path style="fill-rule:evenodd;clip-rule:evenodd;fill:#EA511E;" d="M154.468,236.307c1.383-2.517,6.409-11.124,7.124-25.422
			c0.518,3.748,0.834,6.927,0.834,8.379c0,5.413-1.456,16.103-1.456,16.103C159.515,236.014,156.964,236.273,154.468,236.307
			L154.468,236.307z"/>
		<path style="fill-rule:evenodd;clip-rule:evenodd;" d="M165.286,292.429c-3.635,4.281-6.669,7.445-13.171,8.126
			c-0.345,0-0.624-0.231-0.624-0.515c0-0.284,0.279-0.515,0.624-0.515c5.882-0.622,8.826-3.766,12.079-7.594
			c0.166-0.249,0.546-0.339,0.848-0.202C165.343,291.866,165.453,292.18,165.286,292.429L165.286,292.429z"/>
		<path style="fill-rule:evenodd;clip-rule:evenodd;fill:#FFCC99;" d="M253.289,177.674c0,0-6.389-5.453-7.666-4.176
			c-1.277,1.277,5.559,5.941,5.559,5.941s-7.448-4.043-7.661-2.341c-0.213,1.702,7.235,6.171,7.235,6.171s-6.809-2.128-7.235-0.213
			c-0.426,1.915,6.384,2.979,6.384,2.979s-7.022,0-7.448,1.064c-0.426,1.064,9.15,3.405,9.15,3.405L253.289,177.674z"/>
		<g>
			<g>
				<path d="M173.874,140.191c0.113-0.129,0.231-0.252,0.357-0.368c0.067-0.061,0.136-0.12,0.205-0.178
					c0.088-0.074,0.012,0.01-0.031,0.022c0.031-0.008,0.071-0.053,0.097-0.071c0.139-0.1,0.284-0.191,0.433-0.275
					c0.079-0.044,0.159-0.087,0.24-0.127c0.036-0.018,0.072-0.035,0.109-0.052c0.025-0.012,0.185-0.086,0.064-0.029
					c-0.11,0.052,0.015-0.004,0.038-0.013c0.038-0.014,0.076-0.028,0.113-0.041c0.085-0.03,0.172-0.058,0.259-0.083
					c0.164-0.048,0.331-0.086,0.499-0.116c0.04-0.007,0.079-0.012,0.119-0.019c0.118-0.02-0.167,0.016-0.048,0.007
					c0.09-0.006,0.18-0.017,0.271-0.022c0.181-0.009,0.362-0.007,0.543,0.005c0.447,0.028,0.875-0.414,0.855-0.855
					c-0.022-0.488-0.376-0.825-0.855-0.855c-1.663-0.106-3.382,0.609-4.478,1.863c-0.294,0.337-0.356,0.883,0,1.21
					C172.987,140.487,173.56,140.551,173.874,140.191L173.874,140.191z"/>
			</g>
		</g>
		<g>
			<g>
				<path d="M189.164,141.635c0.168-0.052,0.338-0.095,0.511-0.128c0.053-0.01,0.32-0.088,0.098-0.019
					c0.077-0.024,0.181-0.018,0.262-0.023c0.175-0.01,0.351-0.011,0.527-0.002c0.088,0.005,0.175,0.014,0.263,0.021
					c0.18,0.014-0.162-0.029,0.066,0.01c0.162,0.027,0.323,0.063,0.482,0.107c0.156,0.043,0.36,0.082,0.499,0.168
					c-0.188-0.116,0.054,0.025,0.097,0.046c0.079,0.038,0.157,0.079,0.234,0.121c0.154,0.085,0.301,0.18,0.444,0.282
					c0.366,0.26,0.967,0.077,1.17-0.307c0.233-0.44,0.084-0.893-0.307-1.17c-1.365-0.97-3.204-1.245-4.801-0.756
					c-0.427,0.131-0.742,0.604-0.597,1.052C188.251,141.468,188.705,141.775,189.164,141.635L189.164,141.635z"/>
			</g>
		</g>
		<g>
			<g>
				<path d="M177.579,155.07c2.517,2.097,6.213,2.46,9.055,0.787c0.948-0.558,0.088-2.037-0.863-1.477
					c-2.139,1.259-5.059,1.083-6.982-0.52c-0.355-0.296-0.862-0.348-1.21,0C177.275,154.164,177.222,154.773,177.579,155.07
					L177.579,155.07z"/>
			</g>
		</g>
	</g>
</g>
</svg>
